<svg xmlns="http://www.w3.org/2000/svg" width="33" height="28" viewBox="0 0 33 28">
    <g fill="none" fill-rule="evenodd">
        <g>
            <g>
                <g>
                    <path stroke="#3F8169" stroke-width="2" d="M8.93 0H19.3c1.026 0 1.98.524 2.531 1.39l6.062 9.525c.625.983.625 2.239 0 3.221l-6.062 9.526c-.55.865-1.505 1.39-2.53 1.39H8.928c-1.025 0-1.98-.525-2.53-1.39L.336 14.136c-.626-.982-.626-2.238 0-3.221l6.061-9.526C6.95.524 7.904 0 8.93 0z" transform="translate(-23 -54) translate(-1) translate(26.045 55)"/>
                    <path fill="#3F8169" fill-rule="nonzero" d="M12.094 13.253c.43 0 .72-.297.72-.72 0-.2-.067-.368-.206-.501l-1.288-1.24-.755-.659 1.19.043h7.672c.411 0 .726-.309.726-.726 0-.423-.315-.725-.726-.725h-7.671l-1.191.036.755-.659 1.288-1.24c.14-.132.206-.302.206-.501 0-.423-.29-.72-.72-.72-.181 0-.387.085-.526.224l-3.12 3.041c-.314.308-.314.78 0 1.082l3.12 3.041c.14.14.345.224.526.224zm4.171 7.055c.188 0 .393-.085.532-.224l3.12-3.04c.314-.31.308-.78 0-1.083l-3.12-3.04c-.139-.14-.344-.224-.532-.224-.423 0-.719.296-.719.719 0 .2.073.369.212.502l1.287 1.239.756.659-1.19-.042H8.937c-.417 0-.725.308-.725.725 0 .423.308.726.725.726h7.672l1.191-.037-.756.653-1.287 1.24c-.14.138-.212.308-.212.507 0 .417.296.72.72.72z" transform="translate(-23 -54) translate(-1) translate(26.045 55)"/>
                </g>
            </g>
        </g>
    </g>
</svg>
