<svg xmlns="http://www.w3.org/2000/svg" width="303" height="199" viewBox="0 0 303 199">
    <g fill="none" fill-rule="evenodd" stroke-opacity=".448">
        <g fill="#FFF" stroke="#979797">
            <g>
                <g>
                    <path d="M293 .5c2.623 0 4.998 1.063 6.718 2.782 1.719 1.72 2.782 4.095 2.782 6.718h0v179c0 2.623-1.063 4.998-2.782 6.718-1.72 1.719-4.095 2.782-6.718 2.782h0-94.709v-15.363c0-4.222-1.687-8.05-4.424-10.845-2.745-2.802-6.544-4.567-10.756-4.652h0l-64.305-.003c-4.222 0-8.05 1.687-10.845 4.425-2.802 2.744-4.567 6.544-4.652 10.756h0l-.004 15.682H10c-2.623 0-4.998-1.063-6.718-2.782C1.563 193.998.5 191.623.5 189h0V10c0-2.623 1.063-4.998 2.782-6.718C5.002 1.563 7.377.5 10 .5h0z" transform="translate(-37.000000, -246.000000) translate(23.000000, 173.000000) translate(14.000000, 73.000000)"/>
                </g>
            </g>
        </g>
    </g>
</svg>
