<svg xmlns="http://www.w3.org/2000/svg" width="32" height="27" viewBox="0 0 32 27">
    <g fill="none" fill-rule="evenodd">
        <g stroke="#3F8169" stroke-width="2">
            <g>
                <path d="M332.915 55h10.26c1.025 0 1.98.524 2.53 1.39l5.997 9.423c.626.983.626 2.239 0 3.221l-5.997 9.424c-.55.866-1.505 1.39-2.53 1.39h-10.26c-1.026 0-1.98-.524-2.531-1.39l-5.997-9.424c-.625-.982-.625-2.238 0-3.22l5.997-9.425c.55-.865 1.505-1.389 2.53-1.389zm5.13 16.942c2.495 0 4.517-2.023 4.517-4.518 0-2.495-2.022-4.518-4.517-4.518-2.495 0-4.518 2.023-4.518 4.518 0 2.495 2.023 4.518 4.518 4.518z" transform="translate(-321 -54) translate(-1)"/>
            </g>
        </g>
    </g>
</svg>
